{"title":"School.Of.Rock.2003.DVDRIP.aaaevilacharya","uid":5837840,"size":730349038,"categoryP":"video","categoryS":"movies","magnet":"?xt=urn:btih:81170798a17948fecd00c0ccade19e393b7f8705&amp;dn=School.Of.Rock.2003.DVDRIP.aaaevilacharya&amp;tr=udp%3A%2F%2Ftracker.openbittorrent.com%3A80&amp;tr=udp%3A%2F%2Fopen.demonii.com%3A1337&amp;tr=udp%3A%2F%2Ftracker.coppersurfer.tk%3A6969&amp;tr=udp%3A%2F%2Fexodus.desync.com%3A6969","seeders":0,"leechers":0,"uploader":"achaevil","files":8,"time":1284799974,"description":"General\nComplete name : School.Of.Rock.DVDRIP.aaaevilacharya\nFormat : AVI\nFormat/Info : Audio Video Interleave\nFile size : 696 MiB\nDuration : 1h 49mn\nOverall bit rate : 891 Kbps\nWriting library : MPlayer\n\nVideo\nID : 0\nFormat : MPEG-4 Visual\nFormat profile : Advanced Simple@L5\nFormat settings, BVOP : Yes\nFormat settings, QPel : No\nFormat settings, GMC : No warppoints\nFormat settings, Matrix : Default (H.263)\nCodec ID : XVID\nCodec ID/Hint : XviD\nDuration : 1h 49mn\nBit rate : 767 Kbps\nWidth : 620 pixels\nHeight : 280 pixels\nDisplay aspect ratio : 2.2:1\nFrame rate : 23.976 fps\nColor space : YUV\nChroma subsampling : 4:2:0\nBit depth : 8 bits\nScan type : Progressive\nBits/(Pixel*Frame) : 0.184\nStream size : 599 MiB (86%)\n\n\nAudio\nID : 1\nFormat : MPEG Audio\nFormat version : Version 1\nFormat profile : Layer 3\nMode : Joint stereo\nMode extension : MS Stereo\nCodec ID : 55\nCodec ID/Hint : MP3\nDuration : 1h 49mn\nBit rate mode : Constant\nBit rate : 112 Kbps\nChannel(s) : 2 channels\nSampling rate : 44.1 KHz\nVideo delay : 42ms\nStream size : 87.5 MiB (13%)\nAlignment : Aligned on interleaves\nInterleave, duration : 26 ms (0.63 video frame)\nInterleave, preload duration : 809 ms\n\n","torrent":{"xt":"urn:btih:81170798a17948fecd00c0ccade19e393b7f8705","amp;dn":"School.Of.Rock.2003.DVDRIP.aaaevilacharya","amp;tr":["udp%3A%2F%2Ftracker.openbittorrent.com%3A80","udp%3A%2F%2Fopen.demonii.com%3A1337","udp%3A%2F%2Ftracker.coppersurfer.tk%3A6969","udp%3A%2F%2Fexodus.desync.com%3A6969"],"infoHash":"81170798a17948fecd00c0ccade19e393b7f8705","infoHashBuffer":{"type":"Buffer","data":[129,23,7,152,161,121,72,254,205,0,192,204,173,225,158,57,59,127,135,5]},"announce":[],"urlList":[]}}